<svg viewBox="0 0 300 100" xmlns="http://www.w3.org/2000/svg">
  <defs>
    <radialGradient id="chakraGradient" cx="50%" cy="50%" r="50%">
      <stop offset="0%" stop-color="#3B82F6" />
      <stop offset="100%" stop-color="#8B5CF6" />
    </radialGradient>
    <linearGradient id="trishulaGradient" x1="0%" y1="0%" x2="100%" y2="100%">
      <stop offset="0%" stop-color="#06FFA5" />
      <stop offset="100%" stop-color="#3B82F6" />
    </linearGradient>
    <linearGradient id="textGradient" x1="0%" y1="0%" x2="100%" y2="0%">
      <stop offset="0%" stop-color="#FFFFFF" />
      <stop offset="50%" stop-color="#3B82F6" />
      <stop offset="100%" stop-color="#06FFA5" />
    </linearGradient>
    <filter id="glow" x="-50%" y="-50%" width="200%" height="200%">
      <feGaussianBlur stdDeviation="3" result="coloredBlur" />
      <feMerge>
        <feMergeNode in="coloredBlur" />
        <feMergeNode in="SourceGraphic" />
      </feMerge>
    </filter>
    <filter id="subtleShadow" x="-50%" y="-50%" width="200%" height="200%">
      <feDropShadow dx="1" dy="1" stdDeviation="2" flood-color="#000000" flood-opacity="0.5" />
    </filter>
  </defs>
  <circle cx="45" cy="50" r="30" fill="none" stroke="#3B82F6" stroke-width="1" opacity="0.3" filter="url(#glow)" />
  <circle cx="45" cy="50" r="25" fill="url(#chakraGradient)" opacity="0.15" />
  <g stroke="url(#chakraGradient)" stroke-width="2.5" fill="none" filter="url(#glow)">
    <line x1="45" y1="25" x2="45" y2="33" stroke-linecap="round" />
    <line x1="62.8" y1="32.2" x2="58.4" y2="36.6" stroke-linecap="round" />
    <line x1="70" y1="50" x2="62" y2="50" stroke-linecap="round" />
    <line x1="62.8" y1="67.8" x2="58.4" y2="63.4" stroke-linecap="round" />
    <line x1="45" y1="75" x2="45" y2="67" stroke-linecap="round" />
    <line x1="27.2" y1="67.8" x2="31.6" y2="63.4" stroke-linecap="round" />
    <line x1="20" y1="50" x2="28" y2="50" stroke-linecap="round" />
    <line x1="27.2" y1="32.2" x2="31.6" y2="36.6" stroke-linecap="round" />
  </g>
  <g fill="url(#trishulaGradient)" filter="url(#glow)">
    <path d="M 45 33 L 41 39 L 45 41 L 49 39 Z" />
    <path d="M 38 36 L 35 40 L 38 42 L 41 40 Z" />
    <path d="M 52 36 L 49 40 L 52 42 L 55 40 Z" />
    <rect x="43.5" y="41" width="3" height="18" rx="1.5" />
    <circle cx="45" cy="61" r="3.5" fill="#06FFA5" />
  </g>
  <circle cx="45" cy="50" r="5" fill="url(#chakraGradient)" filter="url(#glow)" />
  <circle cx="45" cy="50" r="2" fill="#FFFFFF" opacity="0.9" />
  <text x="90" y="42" font-family="Arial, sans-serif" font-size="26" font-weight="800" fill="url(#textGradient)" filter="url(#subtleShadow)">
    DevFlow
  </text>
  <text x="90" y="62" font-family="Arial, sans-serif" font-size="22" font-weight="600" fill="#9CA3AF">
    Hub
  </text>
  <g stroke="#3B82F6" stroke-width="1.5" fill="none" opacity="0.6" filter="url(#glow)">
    <line x1="75" y1="46" x2="85" y2="46" stroke-linecap="round" />
    <line x1="75" y1="50" x2="85" y2="50" stroke-linecap="round" />
    <line x1="75" y1="54" x2="85" y2="54" stroke-linecap="round" />
  </g>
  <circle cx="85" cy="46" r="2" fill="#3B82F6" filter="url(#glow)" />
  <circle cx="85" cy="50" r="2" fill="#06FFA5" filter="url(#glow)" />
  <circle cx="85" cy="54" r="2" fill="#8B5CF6" filter="url(#glow)" />
</svg> 